<svg xmlns="http://www.w3.org/2000/svg" width="117" height="117" viewBox="0 0 117 117">
  <g id="Group_3456" data-name="Group 3456" transform="translate(-171 -1830)">
    <rect id="Rectangle_96" data-name="Rectangle 96" width="117" height="117" rx="25" transform="translate(171 1830)" fill="#eef1ff"/>
    <g id="noun-career-1549773" transform="translate(56.202 1833.269)">
      <path id="Path_1276" data-name="Path 1276" d="M194.416,16.742a1.643,1.643,0,0,0-.977.463l-6.584,6.584a1.646,1.646,0,1,0,2.315,2.341L193,22.3V34.025a1.646,1.646,0,1,0,3.292,0V22.4l3.729,3.729a1.646,1.646,0,1,0,2.315-2.341L195.754,17.2a1.645,1.645,0,0,0-1.338-.463Zm-7.33,23.044a1.646,1.646,0,0,0-1.491,1.646V92.459A1.646,1.646,0,0,0,187.24,94.1h14.814a1.646,1.646,0,1,0,0-3.292H188.886V43.078h11.523V84.229a1.646,1.646,0,1,0,3.292,0v-42.8a1.646,1.646,0,0,0-1.646-1.646H187.24a1.385,1.385,0,0,0-.154,0Zm-21.4,10.7a1.647,1.647,0,0,0-1.492,1.646V92.459a1.647,1.647,0,0,0,1.646,1.646h14.814a1.647,1.647,0,0,0,1.646-1.646V52.131a1.647,1.647,0,0,0-1.646-1.646H165.842c-.052,0-.1,0-.154,0Zm1.8,3.292H179.01V90.813H167.488Zm-15.637,2.469A7.394,7.394,0,0,0,148.3,70.135a9.1,9.1,0,0,0-5.5,8.359V92.459a1.646,1.646,0,0,0,1.646,1.646h14.814a1.646,1.646,0,0,0,1.646-1.646V78.494a9.1,9.1,0,0,0-5.5-8.359,7.394,7.394,0,0,0-3.55-13.888Zm0,3.292a4.115,4.115,0,1,1-4.115,4.115A4.09,4.09,0,0,1,151.851,59.538Zm0,13.169a5.722,5.722,0,0,1,5.762,5.787V90.813H146.09V78.494A5.722,5.722,0,0,1,151.851,72.707Z" transform="translate(0)" fill="#7794ff"/>
    </g>
  </g>
</svg>
