<svg xmlns="http://www.w3.org/2000/svg" width="117" height="117" viewBox="0 0 117 117">
  <g id="Group_3458" data-name="Group 3458" transform="translate(-1045 -1830)">
    <rect id="Rectangle_96" data-name="Rectangle 96" width="117" height="117" rx="25" transform="translate(1045 1830)" fill="#eef1ff"/>
    <g id="noun-visa-4816489" transform="translate(901.977 1839.254)">
      <path id="Path_1280" data-name="Path 1280" d="M181.553,140a7.864,7.864,0,0,0-3.2.8,6.207,6.207,0,0,0-3.327,5.738v48.335a6.206,6.206,0,0,0,3.327,5.738,7.758,7.758,0,0,0,3.2.791h39.193a7.729,7.729,0,0,0,3.192-.791,6.212,6.212,0,0,0,3.337-5.738V146.539a6.213,6.213,0,0,0-3.337-5.738,7.844,7.844,0,0,0-3.192-.8h-4.484v2.613h4.484a5.337,5.337,0,0,1,2.025.521c.995.5,1.89,1.227,1.89,3.4v48.335c0,2.177-.9,2.907-1.89,3.4a5.218,5.218,0,0,1-2.025.511H181.553a5.228,5.228,0,0,1-2.025-.511c-.995-.5-1.89-1.227-1.89-3.4V146.539c0-2.177.9-2.907,1.89-3.4a5.343,5.343,0,0,1,2.025-.52h4.484V140Z" transform="translate(0 -111.657)" fill="#7794ff"/>
      <path id="Path_1281" data-name="Path 1281" d="M253.234,8.746a16.988,16.988,0,1,0,16.984,16.993A17.011,17.011,0,0,0,253.234,8.746Zm0,2.613a14.374,14.374,0,1,1-14.37,14.379,14.357,14.357,0,0,1,14.37-14.379Z" transform="translate(-52.085)" fill="#7794ff"/>
      <path id="Path_1282" data-name="Path 1282" d="M292.236,11.977c-4.426,5.344-6.795,10.845-6.828,16.434s2.27,11.15,6.828,16.588l2.006-1.679c-4.277-5.1-6.259-10.027-6.23-14.89s2.081-9.773,6.24-14.794Z" transform="translate(-93.903 -2.749)" fill="#7794ff"/>
      <path id="Path_1283" data-name="Path 1283" d="M357.376,11.971,355.36,13.63c4.158,5.022,6.2,9.931,6.23,14.794s-1.943,9.788-6.22,14.89l2,1.679c4.558-5.437,6.871-11,6.837-16.588s-2.4-11.089-6.828-16.434Z" transform="translate(-153.411 -2.743)" fill="#7794ff"/>
      <path id="Path_1284" data-name="Path 1284" d="M341.21,17.531V48.884h2.613V17.531Z" transform="translate(-141.373 -7.473)" fill="#7794ff"/>
      <path id="Path_1285" data-name="Path 1285" d="M244.97,113.77v2.613h31.362V113.77Z" transform="translate(-59.503 -89.343)" fill="#7794ff"/>
      <path id="Path_1286" data-name="Path 1286" d="M285.019,54.543c-8.137,5.507-15.868,5.642-24.11.019l-1.466,2.15c8.923,6.088,18.236,5.943,27.032-.01Z" transform="translate(-71.815 -38.959)" fill="#7794ff"/>
      <path id="Path_1287" data-name="Path 1287" d="M273,145.809a23.709,23.709,0,0,0-13.559,4.5l1.476,2.16c8.238-5.619,15.958-5.492,24.091.009l1.456-2.16A24.1,24.1,0,0,0,273,145.809Z" transform="translate(-71.816 -116.598)" fill="#7794ff"/>
      <path id="Path_1288" data-name="Path 1288" d="M315.313,255.29a1.305,1.305,0,0,0-.916.376l-12.932,12.942a1.3,1.3,0,0,0,1.842,1.842l12.932-12.932a1.3,1.3,0,0,0-.926-2.228Z" transform="translate(-107.239 -209.733)" fill="#7794ff"/>
      <path id="Path_1289" data-name="Path 1289" d="M277.169,329.586a1.308,1.308,0,0,0-.164,2.411l3.3,1.649,1.659,3.308h0a1.3,1.3,0,1,0,2.334-1.167l-2.044-4.089-4.08-2.035a1.31,1.31,0,0,0-1-.077Z" transform="translate(-86.137 -272.881)" fill="#7794ff"/>
      <path id="Path_1290" data-name="Path 1290" d="M302.558,267.669a1.308,1.308,0,1,0-.511,2.565l8.381,1.678,1.678,8.38a1.308,1.308,0,0,0,2.565-.511l-2.025-10.1Z" transform="translate(-107.157 -220.242)" fill="#7794ff"/>
      <path id="Path_1291" data-name="Path 1291" d="M246.286,402.5a1.307,1.307,0,1,0,0,2.614h28.739a1.307,1.307,0,1,0,0-2.614Z" transform="translate(-59.507 -334.964)" fill="#7794ff"/>
      <path id="Path_1292" data-name="Path 1292" d="M246.287,446.29a1.307,1.307,0,1,0,0,2.614h28.738a1.307,1.307,0,1,0,0-2.614Z" transform="translate(-59.507 -372.216)" fill="#7794ff"/>
      <path id="Path_1293" data-name="Path 1293" d="M246.286,490.02a1.307,1.307,0,1,0,0,2.613h28.739a1.307,1.307,0,1,0,0-2.613Z" transform="translate(-59.507 -409.417)" fill="#7794ff"/>
    </g>
  </g>
</svg>
