<svg xmlns="http://www.w3.org/2000/svg" width="117" height="117" viewBox="0 0 117 117">
  <g id="Group_3459" data-name="Group 3459" transform="translate(-1482 -1830)">
    <rect id="Rectangle_96" data-name="Rectangle 96" width="117" height="117" rx="25" transform="translate(1482 1830)" fill="#eef1ff"/>
    <g id="noun-home-1935365" transform="translate(1436.313 1804.902)">
      <path id="Path_1316" data-name="Path 1316" d="M167.776,83.628a1.8,1.8,0,0,1-1.346-.577L146.513,63.135a4.06,4.06,0,0,0-5.729,0L120.907,83.051a1.93,1.93,0,0,1-2.73-2.73L138.093,60.4a7.936,7.936,0,0,1,11.189,0L169.2,80.321a1.9,1.9,0,0,1,0,2.73,2.109,2.109,0,0,1-1.422.577Z" transform="translate(-39.912 0)" fill="#7794ff"/>
      <path id="Path_1317" data-name="Path 1317" d="M194.175,248.318H169.338a8.705,8.705,0,0,1-8.69-8.69V217.52a1.922,1.922,0,0,1,3.845,0v22.108a4.849,4.849,0,0,0,4.845,4.845h24.838a4.849,4.849,0,0,0,4.845-4.845v-12.5a1.922,1.922,0,1,1,3.845,0v12.5a8.681,8.681,0,0,1-8.69,8.69Z" transform="translate(-78.232 -140.198)" fill="#7794ff"/>
    </g>
  </g>
</svg>
