<svg xmlns="http://www.w3.org/2000/svg" width="117" height="117" viewBox="0 0 117 117">
  <g id="Group_3457" data-name="Group 3457" transform="translate(-608 -1830)">
    <rect id="Rectangle_96" data-name="Rectangle 96" width="117" height="117" rx="25" transform="translate(608 1830)" fill="#eef1ff"/>
    <g id="noun-graduate-student-avatar-3189778" transform="translate(538.146 1842.969)">
      <path id="Path_1277" data-name="Path 1277" d="M520.68,490.51h2.237v7.838H520.68Z" transform="translate(-369.689 -417.137)" fill="#7794ff"/>
      <path id="Path_1278" data-name="Path 1278" d="M162.36,490.51H164.6v7.838H162.36Z" transform="translate(-58.607 -417.137)" fill="#7794ff"/>
      <path id="Path_1279" data-name="Path 1279" d="M154.4,59.336l-16.255-8.471V44.57a11.628,11.628,0,0,0,1.966-6.431V32.12h2.616A1.118,1.118,0,0,0,143.843,31V23.026l7.666-2.235V28.9a3.616,3.616,0,0,0-2.5,3.427v5.552A1.119,1.119,0,0,0,150.124,39h5.007a1.118,1.118,0,0,0,1.119-1.119V32.326a3.614,3.614,0,0,0-2.5-3.427v-8.76l.9-.261a1.119,1.119,0,0,0,0-2.147l-26.248-7.653a1.109,1.109,0,0,0-.627,0L101.533,17.73a1.119,1.119,0,0,0,0,2.147l10.786,3.146V31a1.119,1.119,0,0,0,1.119,1.119h3.432v6.018a11.63,11.63,0,0,0,1.977,6.447v6.277l-16.015,8.526a14.621,14.621,0,0,0-7.978,13.053v8.769h2.237V72.442a12.4,12.4,0,0,1,6.778-11.071l15.013-7.992V60.89a1.118,1.118,0,0,0,1.741.929l6.748-4.525v23.7h2.237v-23.7l6.748,4.525a1.119,1.119,0,0,0,1.741-.929V53.363l15.253,7.948a12.427,12.427,0,0,1,6.537,10.95v8.949h2.237V72.262A14.669,14.669,0,0,0,154.4,59.336Zm-.384-22.576h-2.77V32.326a1.385,1.385,0,1,1,2.771,0ZM128.081,12.314l22.256,6.49L128.08,25.292,105.84,18.8ZM114.557,23.679l13.211,3.851a1.109,1.109,0,0,0,.627,0l13.212-3.851v6.2H114.557Zm13.933,30.1-7.405-5.715v-1a11.518,11.518,0,0,0,14.821-.01v1Zm9.382-15.646a9.382,9.382,0,1,1-18.765,0V32.12h18.765ZM121.12,58.792V50.921l5.458,4.211Zm14.74,0-5.458-3.66,5.458-4.211Z" transform="translate(0 0)" fill="#7794ff"/>
    </g>
  </g>
</svg>
