<svg xmlns="http://www.w3.org/2000/svg" width="117" height="117" viewBox="0 0 117 117">
  <g id="Group_3460" data-name="Group 3460" transform="translate(-991 -2379)">
    <rect id="Rectangle_96" data-name="Rectangle 96" width="117" height="117" rx="25" transform="translate(991 2379)" fill="#eef1ff"/>
    <g id="noun-aeroplane-2646636" transform="matrix(0.995, -0.105, 0.105, 0.995, 918.668, 2299.453)">
      <path id="Path_1294" data-name="Path 1294" d="M100.212,199.923a2.3,2.3,0,0,1-.554-.066l-8.836-1.789a3.013,3.013,0,0,1-1.441-.773L87.542,195.4c-.019-.019-.113-.114-.13-.135l-7.974-9.375a1.127,1.127,0,0,1-.106-.145,1.633,1.633,0,0,1-.361-.645,2.6,2.6,0,0,1-.025-1.91,2.644,2.644,0,0,1,1.5-1.521l6.1-2.752a2.771,2.771,0,0,1,2.673.241l6.928,5.3L139.6,163.485a1.043,1.043,0,0,1,.15-.06l.227-.074a9.54,9.54,0,0,1,12.161,4.432,1.477,1.477,0,0,1,.31.591,1.415,1.415,0,0,1,.067.191,9.414,9.414,0,0,1,.042,6.938,9.312,9.312,0,0,1-4.8,5.157,1.166,1.166,0,0,1-.165.06,1.36,1.36,0,0,1-.211.076l-46.069,18.932a1.089,1.089,0,0,1-.17.055,3.793,3.793,0,0,1-.931.14ZM81.326,184.411l7.912,9.3,1.845,1.891a.666.666,0,0,0,.263.122l8.838,1.789a1.309,1.309,0,0,0,.3-.043l46.091-18.942c.04-.017.08-.03.124-.043a1.218,1.218,0,0,1,.171-.064,6.942,6.942,0,0,0,3.45-3.795,7.027,7.027,0,0,0-.069-5.257c-.016-.036-.028-.074-.04-.111s-.021-.05-.032-.079a1.159,1.159,0,0,1-.132-.208,7.145,7.145,0,0,0-9.214-3.385l-.25.086L110.719,180.12a0,0,0,0,0,0,0l-14.2,6.826a1.2,1.2,0,0,1-1.25-.129l-7.443-5.7a.416.416,0,0,0-.259-.025l-6.188,2.79a.294.294,0,0,0-.187.162.179.179,0,0,0,0,.151c.013.026.025.053.037.08.032.04.064.083.1.132ZM79.28,185.66s0,0,0,0S79.28,185.661,79.28,185.66Zm30.919-6.618h.012Z" transform="translate(0 -33.09)" fill="#7794ff"/>
      <path id="Path_1295" data-name="Path 1295" d="M170.849,147.152a1.2,1.2,0,0,1-.7-.225L150.33,132.753a2.906,2.906,0,0,1-.981-1.109,2.6,2.6,0,0,1-.108-2.089,2.645,2.645,0,0,1,1.5-1.52l7.922-3.577a2.926,2.926,0,0,1,2.15-.023l27.319,12.322a1.2,1.2,0,0,1-.987,2.189l-27.268-12.3a.531.531,0,0,0-.281.023l-7.922,3.577a.3.3,0,0,0-.189.161.182.182,0,0,0,0,.152.582.582,0,0,0,.2.214l19.862,14.2a1.2,1.2,0,0,1-.7,2.177Z" transform="translate(-60.652 0)" fill="#7794ff"/>
      <path id="Path_1296" data-name="Path 1296" d="M366.833,346.609a2.858,2.858,0,0,1-1.632-.5l-20.723-16.463a1.2,1.2,0,1,1,1.493-1.88l20.658,16.415a.585.585,0,0,0,.258.026l8.529-1.7a.309.309,0,0,0,.221-.115.178.178,0,0,0,.029-.15.578.578,0,0,0-.143-.253,1.083,1.083,0,0,1-.081-.1l-14.707-19.208a1.2,1.2,0,0,1,1.906-1.459l14.673,19.166a2.975,2.975,0,0,1,.685,1.285,2.6,2.6,0,0,1-.37,2.059,2.655,2.655,0,0,1-1.8,1.141l-8.528,1.7a3.357,3.357,0,0,1-.466.034Z" transform="translate(-228.858 -169.556)" fill="#7794ff"/>
      <path id="Path_1297" data-name="Path 1297" d="M485.657,237.986a1.2,1.2,0,0,1-1.011-.551L482.432,234a1.2,1.2,0,1,1,2.019-1.3l2.214,3.439a1.2,1.2,0,0,1-.36,1.659A1.188,1.188,0,0,1,485.657,237.986Z" transform="translate(-348.113 -93.101)" fill="#7794ff"/>
      <path id="Path_1298" data-name="Path 1298" d="M443.547,259.2a1.2,1.2,0,0,1-1.011-.551l-2.214-3.439a1.2,1.2,0,0,1,2.019-1.3l2.214,3.439a1.2,1.2,0,0,1-1.009,1.85Z" transform="translate(-311.78 -111.401)" fill="#7794ff"/>
      <path id="Path_1299" data-name="Path 1299" d="M399.257,279.579a1.2,1.2,0,0,1-1.011-.551l-2.214-3.439a1.2,1.2,0,0,1,2.019-1.3l2.214,3.439a1.2,1.2,0,0,1-.36,1.659,1.187,1.187,0,0,1-.648.191Z" transform="translate(-273.566 -128.988)" fill="#7794ff"/>
      <path id="Path_1300" data-name="Path 1300" d="M355.677,299.086a1.2,1.2,0,0,1-1.011-.551l-2.214-3.439a1.2,1.2,0,0,1,2.019-1.3l2.214,3.439a1.2,1.2,0,0,1-1.009,1.85Z" transform="translate(-235.965 -145.819)" fill="#7794ff"/>
    </g>
  </g>
</svg>
